<svg xmlns="http://www.w3.org/2000/svg" xmlns:xlink="http://www.w3.org/1999/xlink" width="248.5" height="80" viewBox="-4 -10 248.5 80"><path fill="#E5E6E6" d="M44.2 70.4l.2-.4 14.2-25.5c-1-4-3.2-8.9-.6-14.3.7-2.4 1-5.2 1-7.9-3.2.5-7 .1-7 .1s-3.2-.1-4.2-1.4c-.8-1-1.8-3.9-1.8-3.9s-.3-.5-.7-.8C44.8 16 44 16 44 16s-.7 0-1.2.3-.7.7-.7.7-1.1 3-1.9 3.9c-1 1.3-4.2 1.4-4.2 1.4s-4.1.5-7.4-.1c-.1 3.1.2 5.6.9 8.1 2.4 5.6 1.2 9.8.1 14.2l14.5 25.9zm-5.1-46.2s3.3-.7 4.9-3.4c1.6 2.7 5.3 3.4 5.3 3.4-2.6 1.6-5 6.7-5 6.7s-2.7-5-5.2-6.7zM46 49.5v.3c-.1.7-.8 1.3-1.5 1.3-.9 0-1.6-.7-1.6-1.6 0-.9.7-1.6 1.6-1.6.8 0 1.4.6 1.5 1.3v.3zm-3.1 10.8c0-.9.7-1.6 1.6-1.6.9 0 1.6.7 1.6 1.6s-.7 1.6-1.6 1.6c-.9 0-1.6-.7-1.6-1.6z"/><defs><path id="a" d="M56.1 40.5v-.2c0-.2-.1-.4-.1-.4l-3.3-4.5c-.9-1.1-2.1-.3-2.1-.3l-5.1 3.5c-.4-.3-.9-.4-1.4-.4-.5 0-1 .2-1.4.5l-5.2-3.5s-1.2-.8-2.1.3L32.1 40s-.1.2-.1.4v.4c.1.2.1.4.1.4l3.3 4.5c.9 1.1 2.1.3 2.1.3l5.2-3.5c.4.3.9.5 1.4.5.5 0 1-.2 1.3-.4l5.1 3.5s1.2.8 2.1-.3l3.3-4.5s.1-.2.1-.4c.1-.2.1-.3.1-.4z"/></defs><use xlink:href="#a" overflow="visible" fill="#57C4C6"/><clipPath id="b"><use xlink:href="#a" overflow="visible"/></clipPath><g clip-path="url(#b)" fill="#E5E6E6"><path d="M34.6 35.3c0 .3-.2.4-.4.4s-.4-.2-.4-.4.2-.4.4-.4c.2-.1.4.1.4.4zm0 2.1c0 .2-.2.4-.4.4s-.4-.2-.4-.4c0-.3.2-.4.4-.4.2-.1.4.1.4.4zm0 2.1c0 .2-.2.4-.4.4s-.4-.2-.4-.4.2-.5.4-.5.4.2.4.5zm0 2.1c0 .3-.2.4-.4.4s-.4-.2-.4-.4.2-.4.4-.4c.2-.1.4.1.4.4zm0 2.1c0 .2-.2.4-.4.4s-.4-.2-.4-.4c0-.3.2-.4.4-.4.2-.1.4.1.4.4z"/></g><g clip-path="url(#b)" fill="#E5E6E6"><path d="M38.5 35.7c0 .2-.2.4-.4.4s-.4-.2-.4-.4.2-.4.4-.4c.3 0 .4.2.4.4zm0 2.1c0 .3-.2.4-.4.4s-.4-.2-.4-.4.2-.4.4-.4c.3 0 .4.2.4.4zm0 2.1c0 .2-.2.4-.4.4s-.4-.2-.4-.4.2-.4.4-.4c.3 0 .4.2.4.4zm0 2.1c0 .3-.2.4-.4.4s-.4-.2-.4-.4.2-.4.4-.4c.3 0 .4.2.4.4zm0 2.1c0 .3-.2.4-.4.4s-.4-.2-.4-.4.2-.4.4-.4c.3 0 .4.2.4.4z"/></g><g clip-path="url(#b)" fill="#E5E6E6"><path d="M42.5 35.7c0 .2-.2.4-.4.4s-.4-.2-.4-.4.2-.4.4-.4.4.2.4.4zm0 2.1c0 .3-.2.4-.4.4s-.4-.2-.4-.4.2-.4.4-.4.4.2.4.4zm0 2.1c0 .2-.2.4-.4.4s-.4-.2-.4-.4.2-.4.4-.4.4.2.4.4zm0 2.1c0 .3-.2.4-.4.4s-.4-.2-.4-.4.2-.4.4-.4.4.2.4.4zm0 2.1c0 .3-.2.4-.4.4s-.4-.2-.4-.4.2-.4.4-.4.4.2.4.4z"/></g><g clip-path="url(#b)" fill="#E5E6E6"><path d="M46.4 35.7c0 .2-.2.4-.4.4s-.4-.2-.4-.4.2-.4.4-.4.4.2.4.4zm0 2.1c0 .3-.2.4-.4.4s-.4-.2-.4-.4.2-.4.4-.4.4.2.4.4zm0 2.1c0 .2-.2.4-.4.4s-.4-.2-.4-.4.2-.4.4-.4.4.2.4.4zm0 2.1c0 .3-.2.4-.4.4s-.4-.2-.4-.4.2-.4.4-.4.4.2.4.4zm0 2.1c0 .3-.2.4-.4.4s-.4-.2-.4-.4.2-.4.4-.4.4.2.4.4z"/></g><g clip-path="url(#b)" fill="#E5E6E6"><path d="M50.3 35.7c0 .2-.2.4-.4.4s-.4-.2-.4-.4.2-.4.4-.4.4.2.4.4zm0 2.1c0 .3-.2.4-.4.4s-.4-.2-.4-.4.2-.4.4-.4.4.2.4.4zm0 2.1c0 .2-.2.4-.4.4s-.4-.2-.4-.4.2-.4.4-.4.4.2.4.4zm0 2.1c0 .3-.2.4-.4.4s-.4-.2-.4-.4.2-.4.4-.4.4.2.4.4zm0 2.1c0 .3-.2.4-.4.4s-.4-.2-.4-.4.2-.4.4-.4.4.2.4.4z"/></g><g clip-path="url(#b)" fill="#E5E6E6"><path d="M36.6 36.2c0 .2-.2.4-.4.4s-.4-.2-.4-.4.2-.4.4-.4c.2-.1.4.1.4.4zm0 2c0 .3-.2.4-.4.4s-.4-.2-.4-.4.2-.4.4-.4.4.2.4.4zm0 2.2c0 .2-.2.4-.4.4s-.4-.2-.4-.4c0-.3.2-.4.4-.4.2-.1.4.1.4.4zm0 2c0 .2-.2.4-.4.4s-.4-.2-.4-.4.2-.4.4-.4.4.2.4.4zm0 2.1c0 .3-.2.4-.4.4s-.4-.2-.4-.4.2-.4.4-.4.4.2.4.4z"/></g><g clip-path="url(#b)" fill="#E5E6E6"><path d="M32.7 36.2c0 .2-.2.4-.4.4s-.4-.2-.4-.4.2-.4.4-.4c.2-.1.4.1.4.4zm0 2c0 .3-.2.4-.4.4s-.4-.2-.4-.4.2-.4.4-.4.4.2.4.4zm0 2.2c0 .2-.2.4-.4.4s-.4-.2-.4-.4c0-.3.2-.4.4-.4.2-.1.4.1.4.4z"/><ellipse cx="32.2" cy="42.4" rx=".4" ry=".4"/><path d="M32.7 44.5c0 .3-.2.4-.4.4s-.4-.2-.4-.4.2-.4.4-.4.4.2.4.4z"/></g><g clip-path="url(#b)" fill="#E5E6E6"><path d="M40.5 36.2c0 .2-.2.4-.4.4s-.4-.2-.4-.4.2-.4.4-.4c.2-.1.4.1.4.4zm0 2c0 .3-.2.4-.4.4s-.4-.2-.4-.4.2-.4.4-.4.4.2.4.4zm0 2.2c0 .2-.2.4-.4.4s-.4-.2-.4-.4c0-.3.2-.4.4-.4.2-.1.4.1.4.4zm0 2c0 .2-.2.4-.4.4s-.4-.2-.4-.4.2-.4.4-.4.4.2.4.4zm0 2.1c0 .3-.2.4-.4.4s-.4-.2-.4-.4.2-.4.4-.4.4.2.4.4z"/></g><g clip-path="url(#b)" fill="#E5E6E6"><path d="M44.4 36.2c0 .2-.2.4-.4.4s-.4-.2-.4-.4.2-.4.4-.4c.3-.1.4.1.4.4zm0 2c0 .3-.2.4-.4.4s-.4-.2-.4-.4.2-.4.4-.4c.3 0 .4.2.4.4zm0 2.2c0 .2-.2.4-.4.4s-.4-.2-.4-.4c0-.3.2-.4.4-.4.3-.1.4.1.4.4zm0 2c0 .2-.2.4-.4.4s-.4-.2-.4-.4.2-.4.4-.4c.3 0 .4.2.4.4zm0 2.1c0 .3-.2.4-.4.4s-.4-.2-.4-.4.2-.4.4-.4c.3 0 .4.2.4.4z"/></g><g clip-path="url(#b)" fill="#E5E6E6"><path d="M48.4 36.2c0 .2-.2.4-.4.4s-.4-.2-.4-.4.2-.4.4-.4c.2-.1.4.1.4.4zm0 2c0 .3-.2.4-.4.4s-.4-.2-.4-.4.2-.4.4-.4.4.2.4.4zm0 2.2c0 .2-.2.4-.4.4s-.4-.2-.4-.4c0-.3.2-.4.4-.4.2-.1.4.1.4.4zm0 2c0 .2-.2.4-.4.4s-.4-.2-.4-.4.2-.4.4-.4.4.2.4.4zm0 2.1c0 .3-.2.4-.4.4s-.4-.2-.4-.4.2-.4.4-.4.4.2.4.4z"/></g><g clip-path="url(#b)" fill="#E5E6E6"><path d="M52.3 36.2c0 .2-.2.4-.4.4s-.4-.2-.4-.4.2-.4.4-.4c.2-.1.4.1.4.4zm0 2c0 .3-.2.4-.4.4s-.4-.2-.4-.4.2-.4.4-.4.4.2.4.4zm0 2.2c0 .2-.2.4-.4.4s-.4-.2-.4-.4c0-.3.2-.4.4-.4.2-.1.4.1.4.4zm0 2c0 .2-.2.4-.4.4s-.4-.2-.4-.4.2-.4.4-.4.4.2.4.4zm0 2.1c0 .3-.2.4-.4.4s-.4-.2-.4-.4.2-.4.4-.4.4.2.4.4z"/></g><g clip-path="url(#b)" fill="#E5E6E6"><path d="M56.2 36.2c0 .2-.2.4-.4.4s-.4-.2-.4-.4.2-.4.4-.4c.2-.1.4.1.4.4zm0 2c0 .3-.2.4-.4.4s-.4-.2-.4-.4.2-.4.4-.4.4.2.4.4zm0 2.2c0 .2-.2.4-.4.4s-.4-.2-.4-.4c0-.3.2-.4.4-.4.2-.1.4.1.4.4z"/><ellipse cx="55.8" cy="42.4" rx=".4" ry=".4"/><path d="M56.2 44.5c0 .3-.2.4-.4.4s-.4-.2-.4-.4.2-.4.4-.4.4.2.4.4z"/></g><g clip-path="url(#b)" fill="#E5E6E6"><path d="M54.3 36.2c0 .2-.2.4-.4.4s-.4-.2-.4-.4.2-.4.4-.4c.2-.1.4.1.4.4zm0 2c0 .3-.2.4-.4.4s-.4-.2-.4-.4.2-.4.4-.4.4.2.4.4zm0 2.2c0 .2-.2.4-.4.4s-.4-.2-.4-.4c0-.3.2-.4.4-.4.2-.1.4.1.4.4zm0 2c0 .2-.2.4-.4.4s-.4-.2-.4-.4.2-.4.4-.4.4.2.4.4zm0 2.1c0 .3-.2.4-.4.4s-.4-.2-.4-.4.2-.4.4-.4.4.2.4.4z"/></g><path fill-rule="evenodd" clip-rule="evenodd" fill="#292933" d="M80.4 35.8v1.3c-.9 0-1.6-.1-2.1-.1h-2.6l-2.7.1v-1.3c1.1 0 1.8-.1 2.1-.3.3-.2.4-.8.4-1.7v-7.5c0-.9-.1-1.5-.4-1.7-.3-.2-1-.3-2.1-.3v-1.4l2.6.1h2.6l2.1-.1v1.4c-.8 0-1.4.1-1.6.4-.3.2-.4.7-.4 1.6v2.8H84v-2.8c0-.9-.1-1.4-.4-1.6-.3-.2-.8-.3-1.6-.3V23l2.1.1h2.7l2.6-.1v1.4c-1.1 0-1.8.1-2.1.3-.3.2-.4.8-.4 1.7v7.5c0 .9.1 1.5.4 1.7.3.2 1 .3 2.1.3v1.3l-2.5-.2h-2.7c-.5 0-1.2 0-2.1.1v-1.3c.8 0 1.3-.2 1.6-.3.3-.2.4-.8.4-1.6v-3.3h-5.7v3.3c0 .9.1 1.4.4 1.6.2.1.7.2 1.6.3zm23.9-5.8c0-2.1-.3-3.6-.9-4.6-.6-1-1.6-1.5-2.9-1.5s-2.3.5-2.9 1.5c-.6 1-.9 2.5-.9 4.6 0 2 .3 3.6.9 4.5.6 1 1.6 1.5 2.9 1.5 1.3 0 2.3-.5 2.9-1.5.5-.9.9-2.4.9-4.5zm-10.7 0c0-2.4.6-4.2 1.8-5.5 1.2-1.3 2.9-1.9 5.1-1.9 2.2 0 3.9.6 5.1 1.9s1.8 3.1 1.8 5.5-.6 4.3-1.8 5.6c-1.2 1.3-2.9 2-5.1 2-2.2 0-3.9-.7-5.1-2s-1.8-3.2-1.8-5.6zm18.4 6.6v-3.7h2c0 1.2.3 2 .7 2.5.4.5 1.2.8 2.2.8 1 0 1.7-.2 2.2-.6.5-.4.8-1 .8-1.8 0-.3-.1-.6-.2-.9-.1-.3-.3-.5-.5-.7-.4-.4-1.4-.9-2.8-1.3-.7-.2-1.2-.4-1.5-.6-1-.4-1.8-.9-2.3-1.5-.5-.6-.7-1.3-.7-2.1 0-1.3.5-2.3 1.6-3 1-.7 2.5-1.1 4.3-1.1.8 0 1.6.1 2.3.2.7.1 1.4.3 2 .6v3.4H120c0-1.1-.2-1.8-.6-2.3-.4-.5-1-.7-1.9-.7-.9 0-1.5.2-2 .6-.5.4-.7.9-.7 1.6 0 .6.2 1.1.6 1.4.4.4 1.2.8 2.4 1.2l1.2.5c1.4.5 2.3.9 2.7 1.3.4.4.7.8.9 1.2.2.4.3 1 .3 1.5 0 1.4-.5 2.5-1.6 3.3-1 .8-2.5 1.2-4.5 1.2-.9 0-1.7-.1-2.5-.2s-1.7-.5-2.3-.8zm15-13.7h13.9v4.5h-2v-1.3c0-.4 0-.8-.1-1-.1-.2-.1-.4-.3-.5-.2-.1-.4-.2-.8-.3-.3-.1-.9-.1-1.5-.1h-.8v9.4c0 .9.2 1.5.4 1.7.3.2 1 .3 2.1.3v1.3c-1.1 0-2-.1-2.6-.1h-3.1l-2.2.1v-1.3c1.1 0 1.8-.1 2.1-.3.3-.2.4-.8.4-1.7v-9.4h-.8c-.7 0-1.3 0-1.6.1-.3 0-.6.2-.8.3-.1.1-.2.3-.3.5 0 .2-.1.6-.1 1v1.3h-2v-4.5zm38.5 0v1.4c-1.1 0-1.8.1-2.1.3-.3.2-.4.8-.4 1.7v7.5c0 .9.1 1.5.4 1.7.3.2 1 .3 2.1.3v1.3h-.8c-1.9-.1-3-.1-3.3-.1h-1.5c-.5 0-1.1 0-1.8.1v-1.3c.9 0 1.4-.1 1.7-.3.3-.2.4-.8.4-1.7v-9.4l-4.4 12.5h-2.1l-4.2-12.6v9.4c0 .9.1 1.4.3 1.6.2.2.7.3 1.3.4V37c-.6 0-1.2-.1-1.7-.1h-3.1c-.5 0-.9 0-1.3.1v-1.3c1.1 0 1.8-.1 2.1-.3.3-.2.4-.8.4-1.7v-7.5c0-.9-.1-1.5-.4-1.7-.3-.2-1-.3-2.1-.3v-1.4c.4 0 .8.1 1.3.1h3.1c.5 0 1.1 0 1.8-.1l3 8.6c.2.6.4 1.1.5 1.6.2.5.3 1 .4 1.4.2-.7.3-1.2.5-1.7.1-.5.3-.9.4-1.3l3-8.6c.5 0 1 .1 1.4.1h1.3c.5.2 1.7.1 3.8 0zm8.9 8.5h4.6l-2.3-6.5-2.3 6.5zm-5.3 5.7v-1.3h.1c1 0 1.8-.8 2.4-2.3l.1-.2 3.8-10.6h2.8l4.2 11.1v.1c.5 1.3 1.3 2 2.4 2h.2v1.3L183 37h-3.1c-.5 0-1.1 0-1.7.1v-1.3c1.3 0 2-.3 2-.7v-.3c0-.1-.1-.2-.1-.3l-.6-1.8H174l-.7 1.9c0 .1-.1.2-.1.4v.4c0 .2.1.3.4.4.3.1.6.1 1.1.1h.4v1.3c-.9 0-1.5-.1-2-.1h-4zm29.8-2.3l-3.9-5.1 3.3-3.8c.3-.3.5-.5.6-.7.1-.2.2-.3.2-.4 0-.2-.1-.3-.2-.3-.2-.1-.4-.1-.8-.1V23l2 .1h2.2c.5 0 1 0 1.6-.1v1.4h-.3c-.5 0-1 .1-1.4.3-.4.2-1 .7-1.7 1.5l-2.7 3 3.9 4.8c.3.4.5.6.8.9.2.2.4.4.6.5.2.1.4.2.7.3.3.1.5.1.8.1h.3v1.3l-2.1-.1H200c-.5 0-1.2 0-2.1.1v-1.3c.5 0 .9 0 1.1-.1.2-.1.3-.2.3-.3s-.2-.3-.4-.6zm-2.2-11.9v1.4c-.8 0-1.3.2-1.5.4-.2.2-.4.7-.4 1.6v7.5c0 .9.1 1.4.4 1.6s.8.3 1.5.4v1.3c-.7 0-1.3-.1-1.8-.1h-2.8l-2.6.1v-1.3c1.1 0 1.8-.1 2.1-.3.3-.2.4-.8.4-1.7v-7.5c0-.9-.1-1.5-.4-1.7-.3-.2-1-.3-2.1-.3v-1.4l2.6.1h2.7c.6 0 1.2 0 1.9-.1zm25 10.4v3.8h-13.2v-1.3c1.1 0 1.8-.1 2.1-.3.3-.2.4-.8.4-1.7v-7.5c0-.9-.1-1.5-.4-1.7-.3-.2-1-.3-2.1-.3v-1.4h12.9v3.6h-1.9v-.7c0-.7-.1-1.1-.5-1.3-.3-.2-1.1-.3-2.4-.3h-2.8v4.9h.7c1.1 0 1.9-.1 2.2-.3.3-.2.5-.6.5-1.2v-.5h1.5v5.3h-1.5V32c0-.6-.1-1-.5-1.2-.3-.2-1-.3-2.2-.3h-.7v5.2h3.2c1.3 0 2.1-.1 2.4-.3.3-.2.5-.7.5-1.3v-.8h1.8zm10.7-4h1c1.1 0 2-.2 2.5-.6.5-.4.8-1.1.8-1.9 0-.8-.3-1.4-.8-1.8-.5-.4-1.4-.5-2.5-.5h-1v4.8zm9.6 6.5v1.3h-3.8c-.5-1.3-.9-2.3-1.3-3.3-.4-.9-.7-1.5-.9-1.9-.4-.5-.8-.9-1.2-1.1-.5-.2-1-.3-1.7-.3h-.6v3.3c0 .9.1 1.5.4 1.7.3.2.9.3 1.9.3v1.3l-2.5-.1H230c-.5 0-1.4 0-2.7.1v-1.3c1.1 0 1.8-.1 2.1-.3.3-.2.4-.8.4-1.7v-7.5c0-.9-.1-1.5-.4-1.7-.3-.2-1-.3-2.1-.3v-1.4h6.2c2.2 0 3.9.3 4.9.9 1 .6 1.6 1.5 1.6 2.7 0 .9-.3 1.6-.8 2.2-.6.6-1.4 1-2.5 1.2.7.1 1.2.3 1.5.6.4.3.7.8 1 1.6l1 2.3c.3.6.5 1 .7 1.1.2.2.6.2 1.1.2z"/><path fill="none" d="M29.1 13.4h-.4s-3.3 0-3.3 1.4c0 0 .2 3 1 4.7 0 0 .4 1.5 2.5 1.7v-1.1c-.2-2.2-.1-4.5.2-6.7zM59 20.1v1.2h.3c2.3-.2 2.7-1.8 2.7-1.8.8-1.7 1-4.7 1-4.7 0-1.4-3.3-1.4-3.3-1.4h-.9c.3 2.2.4 4.5.2 6.7z"/><path fill="#E5E6E6" d="M-2.4 57.1c-.3-1.1-.5-2.2-.7-3.3.2 1.1.4 2.2.7 3.3zM9.5 43c6.8-2.2 9.2-6.8 9.2-6.8v.1C14.2 23.8 22 12.8 22 12.8c-4.4.8-8 5.9-8 5.9 1.1-4.8 5.7-6.3 5.7-6.3-6.3.2-8.9 6.7-8.9 6.7.3-4.1 4.8-6.7 4.8-6.7-5.8 1.5-8.9 7.4-8.9 7.4 1.6-4.8 5-6.7 5-6.7S.2 16.3-2.8 32c-.6 3.2-1 6.3-1.1 9.1 0 .1 6.6 4 13.4 1.9z"/><path fill="#41464E" d="M15.6 70.4c1.9-3.8 4.4-7.1 7.4-9.9 2.5-3.4 4.1-7.6 5.3-11.3-.4-.3-.8-.6-1.1-.9l-.1-.1c-.4-.3-.8-.7-1.1-1l-.3-.3-.9-.9c-.1-.1-.1-.2-.2-.2-.3-.4-.7-.7-1-1.1l-.1-.1c-.3-.3-.5-.6-.8-1-.1-.1-.2-.2-.2-.3l-.6-.9-.2-.2c-.3-.4-.5-.7-.7-1.1 0-.1-.1-.1-.1-.2-.2-.3-.4-.6-.5-.9-.1-.1-.1-.2-.2-.3-.2-.3-.3-.6-.5-1 0 0 0-.1-.1-.1-.2-.4-.3-.8-.5-1.1v-.1c-.1-.3-.3-.7-.4-1v-.1s-2.3 4.6-9.2 6.8c-6.8 2.2-13.4-1.8-13.4-1.8v.1c-.1 1-.1 2.2-.1 3.3 0 3.3.3 6.3.9 9.1.2 1.1.5 2.2.7 3.3.2.9.5 1.8.8 2.6v.1l.9 2.4s0 .1.1.1c.3.8.7 1.6 1.1 2.3v.1c1 2 2.1 3.8 3.4 5.5h11.7z"/><path fill="#41464E" d="M.5 64.8c1 2 2.1 3.8 3.4 5.5-1.2-1.6-2.4-3.5-3.4-5.5zm-3.6-11C-3.7 51-4 48-4 44.7c0 3.3.3 6.3.9 9.1z"/><path fill="#E5E6E6" d="M78.4 68.5c.2.7.3 1.3.5 1.9h14.3c.2-.6.5-1.1.7-1.8 1.3-3.3 1.8-6.1 2-8.5l.1-.4v.1c.3-4.7-.9-7.4-.9-7.4s-1.9 8.1-4.4 9c0 0 4.8-7.8 3.1-12.6 0 0-1.9 6.4-4.1 7.7 0 0 4.6-6.3 1.6-12.5 0 0-.9 7.5-3.4 8.4 0 0 3.2-6.1 1.7-10.8 0 0-3.8 8.8-12.4 13.8-.1-.1-.8 4.2 1.2 13.1z"/><path fill="#41464E" d="M72.8 70.4h6.1c-.2-.6-.4-1.2-.5-1.9-2-8.8-1.3-13.2-1.3-13.2-.4.2-.7.4-1.1.6-.1 0-.2.1-.2.1-.4.2-.7.3-1.1.5-.1 0-.2.1-.3.1-.4.2-.8.3-1.2.4-.1 0-.2.1-.3.1-.4.1-.8.3-1.2.4-.1 0-.2 0-.3.1l-1.2.3c-.1 0-.2 0-.3.1-.4.1-.9.2-1.3.2h-.4c-.5.1-.9.1-1.4.1h-2.7c.4.7.9 1.5 1.4 2.1 2.9 2.9 5.3 6.2 7.3 10z"/><path fill="#292933" d="M44.5 69.9l-.3.5h.3zm15.2-15.1L50 70.4h22.8c-1.9-3.7-4.4-7-7.3-9.8-.5-.7-.9-1.4-1.4-2.1-2.7-4.7-4.3-10.4-5.4-14l-1.6 8.9 2.6 1.4zM15.6 70.4h23L29 55.1l2.6-1.5-1.9-9.2c-.4 1.4-.9 3-1.5 4.8-1.2 3.7-2.8 7.9-5.3 11.3-2.9 2.7-5.4 6.1-7.3 9.9z"/><path fill="#41464E" d="M44.5 70.4H50l9.7-15.6-2.6-1.5 1.6-8.9-14.2 25.5zM29 55.1l9.6 15.3h5.6v-.2L29.8 44.4l1.8 9.2z"/><path fill="#E5E6E6" d="M49.4 20.8c4.2 1.3 8.7.7 9.7.6v-1.2c.1-2.2.1-4.6-.2-6.7-7.3-.3-10.8.9-10.8.9-1.7.6-.8 3-.8 3 .8 3.1 2.1 3.4 2.1 3.4zm4.1-5.7c1.8-.1 3.2 1 3.3 2.3 0 1.3-1.4 2.5-3.1 2.5-1.8.1-3.2-1-3.3-2.3 0-1.3 1.4-2.4 3.1-2.5zm-18.9-2.5c6.2.5 8 1.2 8 1.2s.3.1.7.1c.3.1.5.1.8.1.3 0 .5 0 .8-.1.5 0 .8-.1.8-.1s1.8-.7 8-1.2h5c-.3-1.7-.7-3.2-1.4-4.5-.8-2.5-3.6-4-6.4-4.9h2.3c-3-2-5.6-1.9-7.6-1.2-.6-.1-1.1-.1-1.4-.2 1.4-.8 3-1.4 3-1.4-4.7-1.2-8.6 1.4-10.4 2.8-2.8.9-5.4 2.5-6.3 4.9-.7 1.3-1.1 2.9-1.4 4.5h5.5zm4.4 8.2s1.3-.3 2.1-3.5c0 0 .8-2.4-.8-3 0 0-3.7-1.2-11.3-.8-.3 2.2-.3 4.5-.2 6.7v1.1h.2s5.2 1.1 10-.5zm-8.1-3.2c-.1-1.3 1.3-2.5 3.1-2.5 1.8-.1 3.2 1 3.3 2.3 0 1.3-1.4 2.5-3.1 2.5-1.8.1-3.2-.9-3.3-2.3z"/><path fill="#FFF" d="M37.3 17.4c0-1.3-1.5-2.4-3.3-2.3-1.8.1-3.2 1.2-3.1 2.5 0 1.4 1.5 2.4 3.3 2.3 1.7 0 3.1-1.1 3.1-2.5zm-4.7.3c-.1-.8.4-1.6 1.3-1.7.8-.1 1.6.5 1.7 1.3.1.8-.4 1.6-1.3 1.7-.8.1-1.6-.5-1.7-1.3z"/><path fill="#292933" d="M35.5 17.3c-.1-.8-.9-1.4-1.7-1.3-.8.1-1.4.9-1.3 1.7.1.8.9 1.4 1.7 1.3.9-.1 1.5-.9 1.3-1.7z"/><path fill="#FFF" d="M53.7 20c1.8-.1 3.2-1.2 3.1-2.5-.1-1.3-1.5-2.4-3.3-2.3-1.8.1-3.1 1.2-3.1 2.5.1 1.3 1.5 2.3 3.3 2.3zm-.3-4c.8-.1 1.6.5 1.7 1.3.1.8-.4 1.6-1.3 1.7-.8.1-1.6-.5-1.7-1.3-.1-.8.5-1.6 1.3-1.7z"/><path fill="#292933" d="M53.8 19c.8-.1 1.4-.9 1.3-1.7-.1-.8-.9-1.4-1.7-1.3-.8.1-1.4.9-1.3 1.7.2.8.9 1.4 1.7 1.3z"/><path fill="#292933" d="M36.2 22.2s3.2-.1 4.2-1.4c.8-1 1.9-3.9 1.9-3.9s.2-.4.7-.7c.5-.3 1.2-.3 1.2-.3s.7 0 1.3.3c.4.3.7.8.7.8s1 2.9 1.8 3.9c1 1.3 4.2 1.4 4.2 1.4s3.7.4 7-.1c.8-.1 1.5-.3 2.1-.5 0 0 1.3-.3 2.1-2.8 0 0 .6-2 1.1-2.2 0 0 .2-.3.3-.4 0 0 .5 0 .4-1.8v-.6s0-.5-.9-.6c-.7-.1-1.3-.5-5.5-.6h-5c-6.2.5-8 1.2-8 1.2s-.4.1-.9.1c-.3 0-.5.1-.8.1-.3 0-.6 0-.8-.1-.4 0-.7-.1-.7-.1s-1.8-.7-8-1.2c-2.3-.1-4.1 0-5.4 0-3.7.1-4.3.5-5 .6-.9.1-.9.6-.9.6v.6c-.1 1.8.4 1.8.4 1.8.1.1.3.4.3.4.5.2 1.1 2.2 1.1 2.2.8 2.5 2.1 2.8 2.1 2.8.5.2 1.1.3 1.7.4 3.2.6 7.3.1 7.3.1zm11.9-7.9s3.5-1.2 10.8-.9h.9s3.3 0 3.3 1.4c0 0-.2 3-1 4.7 0 0-.5 1.6-2.7 1.8h-.3c-1.1.2-5.5.8-9.7-.6 0 0-1.3-.3-2.1-3.5-.1.1-.9-2.3.8-2.9zm-19.3 7c-2.1-.3-2.5-1.7-2.5-1.7-.8-1.7-1-4.7-1-4.7 0-1.4 3.3-1.4 3.3-1.4h.4c7.6-.4 11.3.8 11.3.8 1.7.6.8 3 .8 3-.9 3.2-2.1 3.5-2.1 3.5-4.8 1.6-10 .5-10 .5h-.2z"/><path fill="#41464E" d="M49.3 24.2s-3.8-.7-5.3-3.4c-1.6 2.7-4.9 3.4-4.9 3.4 2.6 1.6 5.2 6.7 5.2 6.7s2.4-5 5-6.7zm-4.8 23.7c-.9 0-1.6.7-1.6 1.6 0 .9.7 1.6 1.6 1.6.8 0 1.4-.6 1.5-1.3v-.6c-.1-.7-.8-1.3-1.5-1.3zm0 2c-.2 0-.4-.2-.4-.4s.2-.4.4-.4.4.2.4.4c-.1.2-.2.4-.4.4z"/><path fill="#E5E6E6" d="M44.5 49.1c-.2 0-.4.2-.4.4s.2.4.4.4.4-.2.4-.4c-.1-.2-.2-.4-.4-.4z"/><path fill="#41464E" d="M46 60.3c0-.9-.7-1.6-1.6-1.6-.9 0-1.6.7-1.6 1.6s.7 1.6 1.6 1.6c.9 0 1.6-.7 1.6-1.6zm-1.9 0c0-.2.2-.4.4-.4s.4.2.4.4-.2.4-.4.4-.4-.2-.4-.4z"/><path fill="#E5E6E6" d="M44.8 60.3c0-.2-.2-.4-.4-.4s-.4.2-.4.4.2.4.4.4c.3 0 .4-.2.4-.4z"/></svg>